<svg width="46" height="46" viewBox="0 0 46 46" fill="none" xmlns="http://www.w3.org/2000/svg">
<path d="M23 5.03125C19.4461 5.03125 15.9721 6.0851 13.0171 8.05953C10.0622 10.034 7.75906 12.8403 6.39905 16.1237C5.03904 19.407 4.68319 23.0199 5.37652 26.5055C6.06985 29.9911 7.78121 33.1929 10.2942 35.7058C12.8072 38.2188 16.0089 39.9302 19.4945 40.6235C22.9801 41.3168 26.593 40.961 29.8764 39.601C33.1597 38.2409 35.966 35.9378 37.9405 32.9829C39.9149 30.028 40.9688 26.5539 40.9688 23C40.9635 18.236 39.0687 13.6686 35.7001 10.3C32.3314 6.93129 27.764 5.03648 23 5.03125ZM23 39.5312C19.7304 39.5312 16.5343 38.5617 13.8157 36.7452C11.0972 34.9288 8.97834 32.3469 7.72712 29.3262C6.47591 26.3055 6.14854 22.9817 6.7864 19.7749C7.42426 16.5682 8.99871 13.6226 11.3106 11.3106C13.6226 8.9987 16.5682 7.42426 19.7749 6.78639C22.9817 6.14853 26.3056 6.47591 29.3262 7.72712C32.3469 8.97833 34.9288 11.0972 36.7452 13.8157C38.5617 16.5343 39.5313 19.7304 39.5313 23C39.5265 27.3829 37.7833 31.5849 34.6841 34.6841C31.5849 37.7833 27.3829 39.5265 23 39.5312ZM29.4688 17.25V25.875C29.4688 26.0656 29.393 26.2484 29.2582 26.3832C29.1235 26.518 28.9406 26.5938 28.75 26.5938C28.5594 26.5938 28.3766 26.518 28.2418 26.3832C28.107 26.2484 28.0313 26.0656 28.0313 25.875V18.9858L17.7585 29.2585C17.6237 29.3934 17.4407 29.4692 17.25 29.4692C17.0593 29.4692 16.8764 29.3934 16.7415 29.2585C16.6066 29.1236 16.5309 28.9407 16.5309 28.75C16.5309 28.5593 16.6066 28.3764 16.7415 28.2415L27.0142 17.9688H20.125C19.9344 17.9688 19.7516 17.893 19.6168 17.7582C19.482 17.6234 19.4063 17.4406 19.4063 17.25C19.4063 17.0594 19.482 16.8766 19.6168 16.7418C19.7516 16.607 19.9344 16.5312 20.125 16.5312H28.75C28.9406 16.5312 29.1235 16.607 29.2582 16.7418C29.393 16.8766 29.4688 17.0594 29.4688 17.25Z" fill="white"/>
</svg>
