<svg width="36" height="9" viewBox="0 0 36 9" fill="none" xmlns="http://www.w3.org/2000/svg">
<path d="M4.71023 8.42614C3.5928 8.42614 2.62689 8.02841 1.8125 7.23295C1.01705 6.41856 0.619318 5.45265 0.619318 4.33523C0.619318 3.19886 1.01705 2.23295 1.8125 1.4375C2.62689 0.642045 3.5928 0.244318 4.71023 0.244318C5.84659 0.244318 6.8125 0.642045 7.60795 1.4375C8.40341 2.23295 8.80114 3.19886 8.80114 4.33523C8.80114 5.07386 8.61174 5.75568 8.23295 6.38068C7.87311 7.00568 7.38068 7.50758 6.75568 7.88636C6.14962 8.24621 5.4678 8.42614 4.71023 8.42614ZM18.1946 8.42614C17.0772 8.42614 16.1113 8.02841 15.2969 7.23295C14.5014 6.41856 14.1037 5.45265 14.1037 4.33523C14.1037 3.19886 14.5014 2.23295 15.2969 1.4375C16.1113 0.642045 17.0772 0.244318 18.1946 0.244318C19.331 0.244318 20.2969 0.642045 21.0923 1.4375C21.8878 2.23295 22.2855 3.19886 22.2855 4.33523C22.2855 5.07386 22.0961 5.75568 21.7173 6.38068C21.3575 7.00568 20.8651 7.50758 20.2401 7.88636C19.634 8.24621 18.9522 8.42614 18.1946 8.42614ZM31.679 8.42614C30.5616 8.42614 29.5956 8.02841 28.7812 7.23295C27.9858 6.41856 27.5881 5.45265 27.5881 4.33523C27.5881 3.19886 27.9858 2.23295 28.7812 1.4375C29.5956 0.642045 30.5616 0.244318 31.679 0.244318C32.8153 0.244318 33.7812 0.642045 34.5767 1.4375C35.3722 2.23295 35.7699 3.19886 35.7699 4.33523C35.7699 5.07386 35.5805 5.75568 35.2017 6.38068C34.8419 7.00568 34.3494 7.50758 33.7244 7.88636C33.1184 8.24621 32.4366 8.42614 31.679 8.42614Z" fill="#FF4900"/>
</svg>
