<svg width="98" height="71" viewBox="0 0 98 71" fill="none" xmlns="http://www.w3.org/2000/svg">
<path d="M34.4674 67.9544C33.7761 68.6458 32.9324 68.9974 31.9363 69.0091C30.9403 68.9974 30.0966 68.6458 29.4052 67.9544C28.7021 67.2514 28.3506 66.4076 28.3506 65.4233C28.3623 64.4273 28.7138 63.5836 29.4052 62.8922C30.1083 62.1891 30.952 61.8376 31.9363 61.8376C32.9206 61.8376 33.7643 62.1891 34.4674 62.8922C34.9244 63.3492 35.2291 63.8882 35.3815 64.5093C35.5455 65.1186 35.5514 65.7339 35.399 66.3549C35.2467 66.9525 34.9362 67.4857 34.4674 67.9544ZM42.8105 59.6114C42.1191 60.3028 41.2754 60.6543 40.2793 60.666C39.2833 60.6543 38.4396 60.3028 37.7482 59.6114C37.0451 58.9083 36.6936 58.0646 36.6936 57.0803C36.7053 56.0842 37.0569 55.2405 37.7482 54.5492C38.4513 53.8461 39.295 53.4945 40.2793 53.4945C41.2637 53.4945 42.1074 53.8461 42.8105 54.5492C43.2675 55.0062 43.5721 55.5452 43.7245 56.1663C43.8885 56.7756 43.8944 57.3908 43.7421 58.0119C43.5897 58.6095 43.2792 59.1427 42.8105 59.6114ZM51.1535 51.2684C50.4621 51.9598 49.6184 52.3113 48.6224 52.323C47.6263 52.3113 46.7826 51.9598 46.0913 51.2684C45.3882 50.5653 45.0366 49.7216 45.0366 48.7373C45.0483 47.7412 45.3999 46.8975 46.0913 46.2061C46.7943 45.503 47.6381 45.1515 48.6224 45.1515C49.6067 45.1515 50.4504 45.503 51.1535 46.2061C51.6105 46.6631 51.9152 47.2022 52.0675 47.8232C52.2316 48.4326 52.2374 49.0478 52.0851 49.6689C51.9328 50.2665 51.6222 50.7997 51.1535 51.2684ZM59.4965 42.9253C58.8052 43.6167 57.9615 43.9683 56.9654 43.98C55.9694 43.9683 55.1257 43.6167 54.4343 42.9253C53.7312 42.2223 53.3797 41.3786 53.3797 40.3942C53.3914 39.3982 53.7429 38.5545 54.4343 37.8631C55.1374 37.16 55.9811 36.8085 56.9654 36.8085C57.9497 36.8085 58.7934 37.16 59.4965 37.8631C59.9535 38.3201 60.2582 38.8591 60.4105 39.4802C60.5746 40.0896 60.5805 40.7048 60.4281 41.3258C60.2758 41.9234 59.9653 42.4566 59.4965 42.9253ZM67.8396 34.5823C67.1482 35.2737 66.3045 35.6252 65.3084 35.637C64.3124 35.6252 63.4687 35.2737 62.7773 34.5823C62.0742 33.8792 61.7227 33.0355 61.7227 32.0512C61.7344 31.0552 62.0859 30.2114 62.7773 29.5201C63.4804 28.817 64.3241 28.4654 65.3084 28.4654C66.2928 28.4654 67.1365 28.817 67.8396 29.5201C68.2966 29.9771 68.6012 30.5161 68.7536 31.1372C68.9176 31.7465 68.9235 32.3617 68.7712 32.9828C68.6188 33.5804 68.3083 34.1136 67.8396 34.5823Z" fill="#FF4900"/>
<path d="M29.5846 34.4674C28.8932 33.7761 28.5417 32.9324 28.53 31.9363C28.5417 30.9403 28.8932 30.0966 29.5846 29.4052C30.2877 28.7021 31.1314 28.3506 32.1157 28.3506C33.1118 28.3623 33.9555 28.7138 34.6469 29.4052C35.35 30.1083 35.7015 30.952 35.7015 31.9363C35.7015 32.9206 35.35 33.7643 34.6469 34.4674C34.1899 34.9244 33.6508 35.2291 33.0298 35.3815C32.4204 35.5455 31.8052 35.5514 31.1841 35.399C30.5865 35.2467 30.0533 34.9362 29.5846 34.4674ZM37.9277 42.8105C37.2363 42.1191 36.8847 41.2754 36.873 40.2793C36.8847 39.2833 37.2363 38.4396 37.9277 37.7482C38.6307 37.0451 39.4744 36.6936 40.4588 36.6936C41.4548 36.7053 42.2985 37.0569 42.9899 37.7482C43.693 38.4513 44.0445 39.295 44.0445 40.2793C44.0445 41.2637 43.693 42.1074 42.9899 42.8105C42.5329 43.2675 41.9939 43.5721 41.3728 43.7245C40.7634 43.8885 40.1482 43.8944 39.5272 43.7421C38.9296 43.5897 38.3964 43.2792 37.9277 42.8105ZM46.2707 51.1535C45.5793 50.4621 45.2278 49.6184 45.216 48.6224C45.2278 47.6263 45.5793 46.7826 46.2707 46.0913C46.9738 45.3882 47.8175 45.0366 48.8018 45.0366C49.7978 45.0483 50.6416 45.3999 51.3329 46.0913C52.036 46.7943 52.3876 47.6381 52.3876 48.6224C52.3876 49.6067 52.036 50.4504 51.3329 51.1535C50.8759 51.6105 50.3369 51.9152 49.7158 52.0675C49.1065 52.2316 48.4913 52.2374 47.8702 52.0851C47.2726 51.9328 46.7394 51.6222 46.2707 51.1535ZM54.6137 59.4965C53.9223 58.8052 53.5708 57.9615 53.5591 56.9654C53.5708 55.9694 53.9223 55.1257 54.6137 54.4343C55.3168 53.7312 56.1605 53.3797 57.1448 53.3797C58.1409 53.3914 58.9846 53.7429 59.676 54.4343C60.379 55.1374 60.7306 55.9811 60.7306 56.9654C60.7306 57.9497 60.379 58.7934 59.676 59.4965C59.2189 59.9535 58.6799 60.2582 58.0589 60.4105C57.4495 60.5746 56.8343 60.5805 56.2132 60.4281C55.6156 60.2758 55.0824 59.9653 54.6137 59.4965ZM62.9567 67.8396C62.2654 67.1482 61.9138 66.3045 61.9021 65.3084C61.9138 64.3124 62.2654 63.4687 62.9567 62.7773C63.6598 62.0742 64.5035 61.7227 65.4879 61.7227C66.4839 61.7344 67.3276 62.0859 68.019 62.7773C68.7221 63.4804 69.0736 64.3241 69.0736 65.3084C69.0736 66.2928 68.7221 67.1365 68.019 67.8396C67.562 68.2966 67.0229 68.6012 66.4019 68.7536C65.7925 68.9176 65.1773 68.9235 64.5563 68.7712C63.9586 68.6188 63.4255 68.3083 62.9567 67.8396Z" fill="#FF4900"/>
</svg>
