<svg width="613" height="109" viewBox="0 0 613 109" fill="none" xmlns="http://www.w3.org/2000/svg">
<rect y="82" width="613" height="27" fill="#FF4900"/>
<path d="M199.909 98.3636C192.939 98.3636 186.955 96.8333 181.955 93.7727C176.985 90.7121 173.152 86.4848 170.455 81.0909C167.788 75.6667 166.455 69.4242 166.455 62.3636C166.455 55.2727 167.818 49.0152 170.545 43.5909C173.273 38.1364 177.121 33.8939 182.091 30.8636C187.091 27.803 193 26.2727 199.818 26.2727C205.485 26.2727 210.5 27.3182 214.864 29.4091C219.258 31.4697 222.758 34.3939 225.364 38.1818C227.97 41.9394 229.455 46.3333 229.818 51.3636H214.091C213.455 48 211.939 45.197 209.545 42.9545C207.182 40.6818 204.015 39.5455 200.045 39.5455C196.682 39.5455 193.727 40.4545 191.182 42.2727C188.636 44.0606 186.652 46.6364 185.227 50C183.833 53.3636 183.136 57.3939 183.136 62.0909C183.136 66.8485 183.833 70.9394 185.227 74.3636C186.621 77.7576 188.576 80.3788 191.091 82.2273C193.636 84.0455 196.621 84.9545 200.045 84.9545C202.47 84.9545 204.636 84.5 206.545 83.5909C208.485 82.6515 210.106 81.303 211.409 79.5455C212.712 77.7879 213.606 75.6515 214.091 73.1364H229.818C229.424 78.0758 227.97 82.4545 225.455 86.2727C222.939 90.0606 219.515 93.0303 215.182 95.1818C210.848 97.303 205.758 98.3636 199.909 98.3636ZM260.984 98.3636C254.166 98.3636 248.257 96.8636 243.257 93.8636C238.257 90.8636 234.378 86.6667 231.62 81.2727C228.893 75.8788 227.53 69.5758 227.53 62.3636C227.53 55.1515 228.893 48.8333 231.62 43.4091C234.378 37.9848 238.257 33.7727 243.257 30.7727C248.257 27.7727 254.166 26.2727 260.984 26.2727C267.802 26.2727 273.711 27.7727 278.711 30.7727C283.711 33.7727 287.575 37.9848 290.302 43.4091C293.06 48.8333 294.439 55.1515 294.439 62.3636C294.439 69.5758 293.06 75.8788 290.302 81.2727C287.575 86.6667 283.711 90.8636 278.711 93.8636C273.711 96.8636 267.802 98.3636 260.984 98.3636ZM261.075 85.1818C264.772 85.1818 267.863 84.1667 270.348 82.1364C272.833 80.0758 274.681 77.3182 275.893 73.8636C277.136 70.4091 277.757 66.5606 277.757 62.3182C277.757 58.0455 277.136 54.1818 275.893 50.7273C274.681 47.2424 272.833 44.4697 270.348 42.4091C267.863 40.3485 264.772 39.3182 261.075 39.3182C257.287 39.3182 254.136 40.3485 251.62 42.4091C249.136 44.4697 247.272 47.2424 246.03 50.7273C244.817 54.1818 244.211 58.0455 244.211 62.3182C244.211 66.5606 244.817 70.4091 246.03 73.8636C247.272 77.3182 249.136 80.0758 251.62 82.1364C254.136 84.1667 257.287 85.1818 261.075 85.1818ZM312.059 56.0909V97H295.605V27.1818H311.332V39.0455H312.15C313.756 35.1364 316.317 32.0303 319.832 29.7273C323.377 27.4242 327.756 26.2727 332.968 26.2727C337.786 26.2727 341.983 27.303 345.559 29.3636C349.165 31.4242 351.953 34.4091 353.923 38.3182C355.923 42.2273 356.908 46.9697 356.877 52.5455V97H340.423V55.0909C340.423 50.4242 339.211 46.7727 336.786 44.1364C334.392 41.5 331.074 40.1818 326.832 40.1818C323.953 40.1818 321.392 40.8182 319.15 42.0909C316.938 43.3333 315.195 45.1364 313.923 47.5C312.68 49.8636 312.059 52.7273 312.059 56.0909ZM395.668 27.1818V39.9091H355.532V27.1818H395.668ZM365.441 10.4545H381.895V76C381.895 78.2121 382.229 79.9091 382.895 81.0909C383.592 82.2424 384.502 83.0303 385.623 83.4545C386.744 83.8788 387.986 84.0909 389.35 84.0909C390.38 84.0909 391.32 84.0152 392.168 83.8636C393.047 83.7121 393.714 83.5758 394.168 83.4545L396.941 96.3182C396.062 96.6212 394.805 96.9545 393.168 97.3182C391.562 97.6818 389.592 97.8939 387.259 97.9545C383.138 98.0758 379.426 97.4545 376.123 96.0909C372.82 94.697 370.198 92.5455 368.259 89.6364C366.35 86.7273 365.411 83.0909 365.441 78.7273V10.4545ZM416.72 98.4091C412.296 98.4091 408.311 97.6212 404.766 96.0455C401.251 94.4394 398.463 92.0758 396.402 88.9545C394.372 85.8333 393.357 81.9848 393.357 77.4091C393.357 73.4697 394.084 70.2121 395.539 67.6364C396.993 65.0606 398.978 63 401.493 61.4545C404.008 59.9091 406.842 58.7424 409.993 57.9545C413.175 57.1364 416.463 56.5455 419.857 56.1818C423.948 55.7576 427.266 55.3788 429.811 55.0455C432.357 54.6818 434.205 54.1364 435.357 53.4091C436.539 52.6515 437.13 51.4848 437.13 49.9091V49.6364C437.13 46.2121 436.114 43.5606 434.084 41.6818C432.054 39.803 429.13 38.8636 425.311 38.8636C421.281 38.8636 418.084 39.7424 415.72 41.5C413.387 43.2576 411.811 45.3333 410.993 47.7273L395.63 45.5455C396.842 41.303 398.842 37.7576 401.63 34.9091C404.417 32.0303 407.827 29.8788 411.857 28.4545C415.887 27 420.342 26.2727 425.22 26.2727C428.584 26.2727 431.933 26.6667 435.266 27.4545C438.599 28.2424 441.645 29.5455 444.402 31.3636C447.16 33.1515 449.372 35.5909 451.039 38.6818C452.736 41.7727 453.584 45.6364 453.584 50.2727V97H437.766V87.4091H437.22C436.22 89.3485 434.811 91.1667 432.993 92.8636C431.205 94.5303 428.948 95.8788 426.22 96.9091C423.523 97.9091 420.357 98.4091 416.72 98.4091ZM420.993 86.3182C424.296 86.3182 427.16 85.6667 429.584 84.3636C432.008 83.0303 433.872 81.2727 435.175 79.0909C436.508 76.9091 437.175 74.5303 437.175 71.9545V63.7273C436.66 64.1515 435.781 64.5455 434.539 64.9091C433.327 65.2727 431.963 65.5909 430.448 65.8636C428.933 66.1364 427.433 66.3788 425.948 66.5909C424.463 66.803 423.175 66.9848 422.084 67.1364C419.63 67.4697 417.433 68.0152 415.493 68.7727C413.554 69.5303 412.023 70.5909 410.902 71.9545C409.781 73.2879 409.22 75.0152 409.22 77.1364C409.22 80.1667 410.327 82.4545 412.539 84C414.751 85.5455 417.569 86.3182 420.993 86.3182ZM487.784 98.3636C480.814 98.3636 474.83 96.8333 469.83 93.7727C464.86 90.7121 461.027 86.4848 458.33 81.0909C455.663 75.6667 454.33 69.4242 454.33 62.3636C454.33 55.2727 455.693 49.0152 458.42 43.5909C461.148 38.1364 464.996 33.8939 469.966 30.8636C474.966 27.803 480.875 26.2727 487.693 26.2727C493.36 26.2727 498.375 27.3182 502.739 29.4091C507.133 31.4697 510.633 34.3939 513.239 38.1818C515.845 41.9394 517.33 46.3333 517.693 51.3636H501.966C501.33 48 499.814 45.197 497.42 42.9545C495.057 40.6818 491.89 39.5455 487.92 39.5455C484.557 39.5455 481.602 40.4545 479.057 42.2727C476.511 44.0606 474.527 46.6364 473.102 50C471.708 53.3636 471.011 57.3939 471.011 62.0909C471.011 66.8485 471.708 70.9394 473.102 74.3636C474.496 77.7576 476.451 80.3788 478.966 82.2273C481.511 84.0455 484.496 84.9545 487.92 84.9545C490.345 84.9545 492.511 84.5 494.42 83.5909C496.36 82.6515 497.981 81.303 499.284 79.5455C500.587 77.7879 501.481 75.6515 501.966 73.1364H517.693C517.299 78.0758 515.845 82.4545 513.33 86.2727C510.814 90.0606 507.39 93.0303 503.057 95.1818C498.723 97.303 493.633 98.3636 487.784 98.3636ZM553.268 27.1818V39.9091H513.132V27.1818H553.268ZM523.041 10.4545H539.495V76C539.495 78.2121 539.829 79.9091 540.495 81.0909C541.192 82.2424 542.102 83.0303 543.223 83.4545C544.344 83.8788 545.586 84.0909 546.95 84.0909C547.98 84.0909 548.92 84.0152 549.768 83.8636C550.647 83.7121 551.314 83.5758 551.768 83.4545L554.541 96.3182C553.662 96.6212 552.405 96.9545 550.768 97.3182C549.162 97.6818 547.192 97.8939 544.859 97.9545C540.738 98.0758 537.026 97.4545 533.723 96.0909C530.42 94.697 527.798 92.5455 525.859 89.6364C523.95 86.7273 523.011 83.0909 523.041 78.7273V10.4545Z" fill="white"/>
</svg>
