<svg width="100" height="100" viewBox="0 0 100 100" fill="none" xmlns="http://www.w3.org/2000/svg">
<path d="M50 31.25C46.2916 31.25 42.6665 32.3497 39.5831 34.4099C36.4996 36.4702 34.0964 39.3986 32.6773 42.8247C31.2581 46.2508 30.8868 50.0208 31.6103 53.6579C32.3338 57.2951 34.1195 60.636 36.7417 63.2583C39.364 65.8805 42.7049 67.6663 46.3421 68.3897C49.9792 69.1132 53.7492 68.7419 57.1753 67.3227C60.6014 65.9036 63.5298 63.5004 65.5901 60.4169C67.6503 57.3335 68.75 53.7084 68.75 50C68.7448 45.0288 66.7677 40.2626 63.2525 36.7475C59.7374 33.2323 54.9712 31.2552 50 31.25ZM50 62.5C47.5277 62.5 45.111 61.7669 43.0554 60.3934C40.9998 59.0199 39.3976 57.0676 38.4515 54.7835C37.5054 52.4995 37.2579 49.9861 37.7402 47.5614C38.2225 45.1366 39.413 42.9093 41.1612 41.1612C42.9093 39.413 45.1366 38.2225 47.5614 37.7402C49.9861 37.2579 52.4995 37.5054 54.7835 38.4515C57.0676 39.3976 59.0199 40.9998 60.3934 43.0554C61.7669 45.111 62.5 47.5277 62.5 50C62.5 53.3152 61.183 56.4946 58.8388 58.8388C56.4946 61.183 53.3152 62.5 50 62.5ZM68.75 9.375H31.25C25.4503 9.3812 19.8899 11.6879 15.7889 15.7889C11.6879 19.8899 9.3812 25.4503 9.375 31.25V68.75C9.3812 74.5497 11.6879 80.1101 15.7889 84.2111C19.8899 88.3121 25.4503 90.6188 31.25 90.625H68.75C74.5497 90.6188 80.1101 88.3121 84.2111 84.2111C88.3121 80.1101 90.6188 74.5497 90.625 68.75V31.25C90.6188 25.4503 88.3121 19.8899 84.2111 15.7889C80.1101 11.6879 74.5497 9.3812 68.75 9.375ZM84.375 68.75C84.375 72.894 82.7288 76.8683 79.7985 79.7985C76.8683 82.7288 72.894 84.375 68.75 84.375H31.25C27.106 84.375 23.1317 82.7288 20.2015 79.7985C17.2712 76.8683 15.625 72.894 15.625 68.75V31.25C15.625 27.106 17.2712 23.1317 20.2015 20.2015C23.1317 17.2712 27.106 15.625 31.25 15.625H68.75C72.894 15.625 76.8683 17.2712 79.7985 20.2015C82.7288 23.1317 84.375 27.106 84.375 31.25V68.75ZM75 29.6875C75 30.6146 74.7251 31.5209 74.21 32.2917C73.6949 33.0626 72.9629 33.6634 72.1063 34.0182C71.2498 34.373 70.3073 34.4658 69.398 34.2849C68.4887 34.1041 67.6535 33.6576 66.9979 33.0021C66.3424 32.3465 65.8959 31.5113 65.7151 30.602C65.5342 29.6927 65.627 28.7502 65.9818 27.8937C66.3366 27.0371 66.9374 26.3051 67.7083 25.79C68.4791 25.2749 69.3854 25 70.3125 25C71.5557 25 72.748 25.4939 73.6271 26.3729C74.5061 27.252 75 28.4443 75 29.6875Z" fill="#111111"/>
</svg>
