<svg width="67" height="67" viewBox="0 0 67 67" fill="none" xmlns="http://www.w3.org/2000/svg">
<path d="M56.5312 6.28125H10.4688C9.35816 6.28125 8.29305 6.72243 7.50774 7.50774C6.72243 8.29305 6.28125 9.35816 6.28125 10.4688V56.5312C6.28125 57.6418 6.72243 58.707 7.50774 59.4923C8.29305 60.2776 9.35816 60.7188 10.4688 60.7188H56.5312C57.6418 60.7188 58.707 60.2776 59.4923 59.4923C60.2776 58.707 60.7188 57.6418 60.7188 56.5312V10.4688C60.7188 9.35816 60.2776 8.29305 59.4923 7.50774C58.707 6.72243 57.6418 6.28125 56.5312 6.28125ZM56.5312 56.5312H10.4688V10.4688H56.5312V56.5312ZM25.125 29.3125V46.0625C25.125 46.6178 24.9044 47.1504 24.5118 47.543C24.1191 47.9357 23.5865 48.1562 23.0312 48.1562C22.476 48.1562 21.9434 47.9357 21.5507 47.543C21.1581 47.1504 20.9375 46.6178 20.9375 46.0625V29.3125C20.9375 28.7572 21.1581 28.2246 21.5507 27.832C21.9434 27.4393 22.476 27.2188 23.0312 27.2188C23.5865 27.2188 24.1191 27.4393 24.5118 27.832C24.9044 28.2246 25.125 28.7572 25.125 29.3125ZM48.1562 36.6406V46.0625C48.1562 46.6178 47.9357 47.1504 47.543 47.543C47.1504 47.9357 46.6178 48.1562 46.0625 48.1562C45.5072 48.1562 44.9746 47.9357 44.582 47.543C44.1893 47.1504 43.9688 46.6178 43.9688 46.0625V36.6406C43.9688 35.2524 43.4173 33.921 42.4356 32.9394C41.454 31.9577 40.1226 31.4062 38.7344 31.4062C37.3461 31.4062 36.0147 31.9577 35.0331 32.9394C34.0515 33.921 33.5 35.2524 33.5 36.6406V46.0625C33.5 46.6178 33.2794 47.1504 32.8868 47.543C32.4941 47.9357 31.9615 48.1562 31.4062 48.1562C30.851 48.1562 30.3184 47.9357 29.9257 47.543C29.5331 47.1504 29.3125 46.6178 29.3125 46.0625V29.3125C29.3151 28.7996 29.5058 28.3056 29.8485 27.924C30.1912 27.5425 30.6621 27.3 31.1717 27.2425C31.6813 27.1851 32.1943 27.3167 32.6133 27.6124C33.0324 27.908 33.3283 28.3472 33.445 28.8466C34.8614 27.8858 36.5128 27.3289 38.2218 27.2358C39.9308 27.1427 41.6329 27.5169 43.1453 28.3181C44.6577 29.1194 45.9232 30.3175 46.8061 31.7838C47.6889 33.25 48.1557 34.9291 48.1562 36.6406ZM26.1719 21.9844C26.1719 22.6055 25.9877 23.2127 25.6426 23.7292C25.2975 24.2457 24.807 24.6482 24.2331 24.8859C23.6592 25.1236 23.0278 25.1858 22.4185 25.0647C21.8093 24.9435 21.2497 24.6444 20.8105 24.2051C20.3713 23.7659 20.0722 23.2063 19.951 22.5971C19.8298 21.9879 19.892 21.3564 20.1297 20.7825C20.3674 20.2086 20.7699 19.7181 21.2864 19.373C21.8029 19.0279 22.4101 18.8438 23.0312 18.8438C23.8642 18.8438 24.663 19.1746 25.252 19.7636C25.841 20.3526 26.1719 21.1514 26.1719 21.9844Z" fill="#111111"/>
</svg>
