<svg width="651" height="87" viewBox="0 0 651 87" fill="none" xmlns="http://www.w3.org/2000/svg">
<path d="M0.660156 85V24.9512H16.4512V35.6396H17.2031C18.4564 32.0947 20.5511 29.3018 23.4873 27.2607C26.4235 25.2197 29.9147 24.1992 33.9609 24.1992C38.0788 24.1992 41.57 25.2376 44.4346 27.3145C47.335 29.3555 49.2507 32.1305 50.1816 35.6396H50.8262C52.0794 32.1663 54.2995 29.3913 57.4863 27.3145C60.709 25.2376 64.5225 24.1992 68.9268 24.1992C74.5127 24.1992 79.0602 25.9717 82.5693 29.5166C86.1143 33.0615 87.8867 38.0924 87.8867 44.6094V85H71.2363V47.9395C71.2363 44.5736 70.3411 42.0671 68.5508 40.4199C66.7962 38.7728 64.5941 37.9492 61.9443 37.9492C58.9365 37.9492 56.5732 38.916 54.8545 40.8496C53.1715 42.7474 52.3301 45.2539 52.3301 48.3691V85H36.1631V47.5098C36.1631 44.6094 35.3216 42.2998 33.6387 40.5811C31.9915 38.8265 29.8073 37.9492 27.0859 37.9492C24.293 37.9492 21.9655 38.9697 20.1035 41.0107C18.2415 43.016 17.3105 45.6836 17.3105 49.0137V85H0.660156ZM117.546 86.1816C111.387 86.1816 106.088 84.9284 101.647 82.4219C97.2074 79.9154 93.7878 76.3525 91.3887 71.7334C88.9896 67.0785 87.79 61.582 87.79 55.2441C87.79 49.0853 88.9717 43.6784 91.335 39.0234C93.734 34.3685 97.0999 30.734 101.433 28.1201C105.765 25.5062 110.868 24.1992 116.74 24.1992C122.04 24.1992 126.82 25.3271 131.081 27.583C135.378 29.8389 138.78 33.2227 141.286 37.7344C143.828 42.2461 145.1 47.9036 145.1 54.707V59.2188H104.172C104.351 63.7663 105.676 67.3291 108.146 69.9072C110.617 72.4854 113.84 73.7744 117.814 73.7744C120.572 73.7744 122.935 73.1836 124.904 72.002C126.91 70.8203 128.342 69.1016 129.201 66.8457L144.562 67.8662C143.381 73.3805 140.427 77.8206 135.7 81.1865C131.009 84.5166 124.958 86.1816 117.546 86.1816ZM104.279 48.96H129.147C128.754 45.1644 127.536 42.1566 125.495 39.9365C123.454 37.7165 120.59 36.6064 116.901 36.6064C113.177 36.6064 110.223 37.7702 108.039 40.0977C105.891 42.3893 104.637 45.3434 104.279 48.96ZM161.707 4.9707V85H145.057V4.9707H161.707ZM181.161 86.1279C175.432 86.1279 170.67 84.6419 166.874 81.6699C163.114 78.6621 161.234 74.1862 161.234 68.2422C161.234 63.7663 162.273 60.2572 164.35 57.7148C166.462 55.1367 169.237 53.2568 172.675 52.0752C176.112 50.8577 179.8 50.07 183.739 49.7119C188.967 49.2106 192.691 48.6914 194.911 48.1543C197.167 47.5814 198.295 46.3281 198.295 44.3945V44.126C198.295 41.6553 197.507 39.7396 195.932 38.3789C194.356 37.0182 192.082 36.3379 189.11 36.3379C186.138 36.3379 183.703 36.9824 181.806 38.2715C179.944 39.5605 178.708 41.2077 178.1 43.2129L162.953 40.7959C164.385 35.568 167.393 31.5039 171.977 28.6035C176.596 25.6673 182.325 24.1992 189.164 24.1992C193.604 24.1992 197.776 24.8975 201.679 26.2939C205.618 27.6904 208.804 29.8926 211.239 32.9004C213.674 35.8724 214.892 39.7396 214.892 44.502V85H199.154V76.6211H198.671C197.203 79.4499 195.019 81.7415 192.118 83.4961C189.254 85.2507 185.601 86.1279 181.161 86.1279ZM177.079 67.7051C177.079 69.9967 177.903 71.7334 179.55 72.915C181.233 74.0609 183.345 74.6338 185.888 74.6338C189.54 74.6338 192.53 73.5775 194.857 71.4648C197.221 69.3522 198.402 66.7204 198.402 63.5693V57.1777C197.758 57.6074 196.737 58.0013 195.341 58.3594C193.98 58.7174 192.53 59.0218 190.99 59.2725C189.451 59.4873 188.072 59.6842 186.854 59.8633C183.918 60.293 181.555 61.1344 179.765 62.3877C177.974 63.6051 177.079 65.3776 177.079 67.7051ZM233.916 50.3027V85H217.266V24.9512H233.647V35.6396H234.238C235.599 32.1305 237.765 29.3555 240.737 27.3145C243.709 25.2376 247.415 24.1992 251.855 24.1992C258.122 24.1992 263.135 26.2223 266.895 30.2686C270.69 34.279 272.588 39.7933 272.588 46.8115V85H255.938V49.7656C255.938 46.0775 254.989 43.195 253.091 41.1182C251.229 39.0413 248.633 38.0029 245.303 38.0029C241.937 38.0029 239.198 39.0951 237.085 41.2793C234.972 43.4277 233.916 46.4355 233.916 50.3027ZM274.908 85V24.9512H291.559V85H274.908ZM283.233 17.2705C280.763 17.2705 278.632 16.4469 276.842 14.7998C275.087 13.1527 274.21 11.1654 274.21 8.83789C274.21 6.51042 275.087 4.54102 276.842 2.92969C278.632 1.28255 280.763 0.458984 283.233 0.458984C285.704 0.458984 287.817 1.28255 289.571 2.92969C291.362 4.54102 292.257 6.51042 292.257 8.83789C292.257 11.1654 291.362 13.1527 289.571 14.7998C287.817 16.4469 285.704 17.2705 283.233 17.2705ZM321.218 86.1816C315.059 86.1816 309.759 84.9284 305.319 82.4219C300.879 79.9154 297.46 76.3525 295.061 71.7334C292.661 67.0785 291.462 61.582 291.462 55.2441C291.462 49.0853 292.644 43.6784 295.007 39.0234C297.406 34.3685 300.772 30.734 305.104 28.1201C309.437 25.5062 314.54 24.1992 320.412 24.1992C325.712 24.1992 330.492 25.3271 334.753 27.583C339.05 29.8389 342.451 33.2227 344.958 37.7344C347.5 42.2461 348.771 47.9036 348.771 54.707V59.2188H307.844C308.023 63.7663 309.348 67.3291 311.818 69.9072C314.289 72.4854 317.512 73.7744 321.486 73.7744C324.243 73.7744 326.607 73.1836 328.576 72.002C330.581 70.8203 332.014 69.1016 332.873 66.8457L348.234 67.8662C347.053 73.3805 344.099 77.8206 339.372 81.1865C334.681 84.5166 328.63 86.1816 321.218 86.1816ZM307.951 48.96H332.819C332.425 45.1644 331.208 42.1566 329.167 39.9365C327.126 37.7165 324.261 36.6064 320.573 36.6064C316.849 36.6064 313.895 37.7702 311.711 40.0977C309.562 42.3893 308.309 45.3434 307.951 48.96Z" fill="white"/>
<path d="M397.401 85.9668C394.179 85.9668 391.439 85.4297 389.184 84.3555C386.964 83.2812 385.137 81.9385 383.705 80.3271C382.309 78.68 381.216 77.0329 380.429 75.3857H379.677V85H363.295V4.9707H379.945V35.1025H380.429C381.181 33.4554 382.237 31.7904 383.598 30.1074C384.994 28.4245 386.82 27.028 389.076 25.918C391.368 24.7721 394.179 24.1992 397.509 24.1992C401.913 24.1992 405.941 25.3451 409.594 27.6367C413.282 29.8926 416.236 33.3122 418.456 37.8955C420.676 42.4788 421.786 48.208 421.786 55.083C421.786 61.7432 420.712 67.3828 418.563 72.002C416.415 76.5853 413.497 80.0586 409.809 82.4219C406.12 84.7852 401.985 85.9668 397.401 85.9668ZM379.569 55.0293C379.569 60.3288 380.661 64.6077 382.846 67.8662C385.066 71.1247 388.181 72.7539 392.191 72.7539C396.273 72.7539 399.389 71.1068 401.537 67.8125C403.686 64.4824 404.76 60.2214 404.76 55.0293C404.76 49.8014 403.686 45.5583 401.537 42.2998C399.424 39.0413 396.309 37.4121 392.191 37.4121C388.181 37.4121 385.066 39.0055 382.846 42.1924C380.661 45.3792 379.569 49.6582 379.569 55.0293ZM421.689 85V24.9512H437.803V35.4785H438.447C439.521 31.7546 441.348 28.9437 443.926 27.0459C446.504 25.1123 449.476 24.1455 452.842 24.1455C453.665 24.1455 454.561 24.1992 455.527 24.3066C456.494 24.4141 457.336 24.5573 458.052 24.7363V39.4531C457.264 39.2025 456.172 39.0055 454.775 38.8623C453.415 38.6833 452.161 38.5938 451.016 38.5938C447.363 38.5938 444.338 39.7575 441.938 42.085C439.539 44.3766 438.34 47.3665 438.34 51.0547V85H421.689ZM482.77 86.1816C476.718 86.1816 471.472 84.8926 467.032 82.3145C462.628 79.7005 459.226 76.084 456.827 71.4648C454.464 66.8099 453.282 61.403 453.282 55.2441C453.282 49.0495 454.464 43.6247 456.827 38.9697C459.226 34.3148 462.628 30.6982 467.032 28.1201C471.472 25.5062 476.718 24.1992 482.77 24.1992C488.857 24.1992 494.103 25.5062 498.507 28.1201C502.947 30.6982 506.349 34.3148 508.712 38.9697C511.111 43.6247 512.311 49.0495 512.311 55.2441C512.311 61.403 511.111 66.8099 508.712 71.4648C506.349 76.084 502.947 79.7005 498.507 82.3145C494.103 84.8926 488.857 86.1816 482.77 86.1816ZM470.201 55.1367C470.201 60.3646 471.257 64.6794 473.37 68.0811C475.483 71.4827 478.634 73.1836 482.823 73.1836C486.977 73.1836 490.11 71.4827 492.223 68.0811C494.335 64.6794 495.392 60.3646 495.392 55.1367C495.392 49.9089 494.335 45.612 492.223 42.2461C490.11 38.8802 486.977 37.1973 482.823 37.1973C478.634 37.1973 475.483 38.8802 473.37 42.2461C471.257 45.612 470.201 49.9089 470.201 55.1367ZM524.084 85L507.756 24.9512H524.567L533.913 65.3418H534.396L544.172 24.9512H560.607L570.49 65.0732H571.027L580.158 24.9512H596.97L580.642 85H563.024L552.712 47.2412H552.014L541.701 85H524.084ZM611.482 50.3027V85H594.832V24.9512H611.214V35.6396H611.805C613.165 32.1305 615.332 29.3555 618.304 27.3145C621.276 25.2376 624.982 24.1992 629.422 24.1992C635.688 24.1992 640.701 26.2223 644.461 30.2686C648.257 34.279 650.154 39.7933 650.154 46.8115V85H633.504V49.7656C633.504 46.0775 632.555 43.195 630.657 41.1182C628.795 39.0413 626.199 38.0029 622.869 38.0029C619.503 38.0029 616.764 39.0951 614.651 41.2793C612.539 43.4277 611.482 46.4355 611.482 50.3027Z" fill="#FF4900"/>
</svg>
