<svg width="499" height="226" viewBox="0 0 499 226" fill="none" xmlns="http://www.w3.org/2000/svg">
<path d="M0.75 99V29.125H19.125V41.5625H20C21.4583 37.4375 23.8958 34.1875 27.3125 31.8125C30.7292 29.4375 34.7917 28.25 39.5 28.25C44.2917 28.25 48.3542 29.4583 51.6875 31.875C55.0625 34.25 57.2917 37.4792 58.375 41.5625H59.125C60.5833 37.5208 63.1667 34.2917 66.875 31.875C70.625 29.4583 75.0625 28.25 80.1875 28.25C86.6875 28.25 91.9792 30.3125 96.0625 34.4375C100.188 38.5625 102.25 44.4167 102.25 52V99H82.875V55.875C82.875 51.9583 81.8333 49.0417 79.75 47.125C77.7083 45.2083 75.1458 44.25 72.0625 44.25C68.5625 44.25 65.8125 45.375 63.8125 47.625C61.8542 49.8333 60.875 52.75 60.875 56.375V99H42.0625V55.375C42.0625 52 41.0833 49.3125 39.125 47.3125C37.2083 45.2708 34.6667 44.25 31.5 44.25C28.25 44.25 25.5417 45.4375 23.375 47.8125C21.2083 50.1458 20.125 53.25 20.125 57.125V99H0.75ZM136.762 100.375C129.596 100.375 123.429 98.9167 118.262 96C113.096 93.0833 109.117 88.9375 106.325 83.5625C103.533 78.1458 102.137 71.75 102.137 64.375C102.137 57.2083 103.512 50.9167 106.262 45.5C109.054 40.0833 112.971 35.8542 118.012 32.8125C123.054 29.7708 128.992 28.25 135.825 28.25C141.992 28.25 147.554 29.5625 152.512 32.1875C157.512 34.8125 161.471 38.75 164.387 44C167.346 49.25 168.825 55.8333 168.825 63.75V69H121.2C121.408 74.2917 122.95 78.4375 125.825 81.4375C128.7 84.4375 132.45 85.9375 137.075 85.9375C140.283 85.9375 143.033 85.25 145.325 83.875C147.658 82.5 149.325 80.5 150.325 77.875L168.2 79.0625C166.825 85.4792 163.387 90.6458 157.887 94.5625C152.429 98.4375 145.387 100.375 136.762 100.375ZM121.325 57.0625H150.262C149.804 52.6458 148.387 49.1458 146.012 46.5625C143.637 43.9792 140.304 42.6875 136.012 42.6875C131.679 42.6875 128.242 44.0417 125.7 46.75C123.2 49.4167 121.742 52.8542 121.325 57.0625ZM188.15 5.875V99H168.775V5.875H188.15ZM210.788 100.312C204.121 100.312 198.579 98.5833 194.163 95.125C189.788 91.625 187.6 86.4167 187.6 79.5C187.6 74.2917 188.808 70.2083 191.225 67.25C193.683 64.25 196.913 62.0625 200.913 60.6875C204.913 59.2708 209.204 58.3542 213.788 57.9375C219.871 57.3542 224.204 56.75 226.788 56.125C229.413 55.4583 230.725 54 230.725 51.75V51.4375C230.725 48.5625 229.808 46.3333 227.975 44.75C226.142 43.1667 223.496 42.375 220.038 42.375C216.579 42.375 213.746 43.125 211.538 44.625C209.371 46.125 207.933 48.0417 207.225 50.375L189.6 47.5625C191.267 41.4792 194.767 36.75 200.1 33.375C205.475 29.9583 212.142 28.25 220.1 28.25C225.267 28.25 230.121 29.0625 234.663 30.6875C239.246 32.3125 242.954 34.875 245.788 38.375C248.621 41.8333 250.038 46.3333 250.038 51.875V99H231.725V89.25H231.163C229.454 92.5417 226.913 95.2083 223.538 97.25C220.204 99.2917 215.954 100.312 210.788 100.312ZM206.038 78.875C206.038 81.5417 206.996 83.5625 208.913 84.9375C210.871 86.2708 213.329 86.9375 216.288 86.9375C220.538 86.9375 224.017 85.7083 226.725 83.25C229.475 80.7917 230.85 77.7292 230.85 74.0625V66.625C230.1 67.125 228.913 67.5833 227.288 68C225.704 68.4167 224.017 68.7708 222.225 69.0625C220.433 69.3125 218.829 69.5417 217.413 69.75C213.996 70.25 211.246 71.2292 209.163 72.6875C207.079 74.1042 206.038 76.1667 206.038 78.875ZM272.175 58.625V99H252.8V29.125H271.863V41.5625H272.55C274.133 37.4792 276.654 34.25 280.113 31.875C283.571 29.4583 287.883 28.25 293.05 28.25C300.342 28.25 306.175 30.6042 310.55 35.3125C314.967 39.9792 317.175 46.3958 317.175 54.5625V99H297.8V58C297.8 53.7083 296.696 50.3542 294.488 47.9375C292.321 45.5208 289.3 44.3125 285.425 44.3125C281.508 44.3125 278.321 45.5833 275.863 48.125C273.404 50.625 272.175 54.125 272.175 58.625ZM319.875 99V29.125H339.25V99H319.875ZM329.562 20.1875C326.688 20.1875 324.208 19.2292 322.125 17.3125C320.083 15.3958 319.062 13.0833 319.062 10.375C319.062 7.66667 320.083 5.375 322.125 3.5C324.208 1.58333 326.688 0.625 329.562 0.625C332.438 0.625 334.896 1.58333 336.938 3.5C339.021 5.375 340.062 7.66667 340.062 10.375C340.062 13.0833 339.021 15.3958 336.938 17.3125C334.896 19.2292 332.438 20.1875 329.562 20.1875ZM373.763 100.375C366.596 100.375 360.429 98.9167 355.263 96C350.096 93.0833 346.117 88.9375 343.325 83.5625C340.533 78.1458 339.138 71.75 339.138 64.375C339.138 57.2083 340.513 50.9167 343.263 45.5C346.054 40.0833 349.971 35.8542 355.013 32.8125C360.054 29.7708 365.992 28.25 372.825 28.25C378.992 28.25 384.554 29.5625 389.513 32.1875C394.513 34.8125 398.471 38.75 401.388 44C404.346 49.25 405.825 55.8333 405.825 63.75V69H358.2C358.408 74.2917 359.95 78.4375 362.825 81.4375C365.7 84.4375 369.45 85.9375 374.075 85.9375C377.283 85.9375 380.033 85.25 382.325 83.875C384.658 82.5 386.325 80.5 387.325 77.875L405.2 79.0625C403.825 85.4792 400.388 90.6458 394.888 94.5625C389.429 98.4375 382.388 100.375 373.763 100.375ZM358.325 57.0625H387.263C386.804 52.6458 385.388 49.1458 383.013 46.5625C380.638 43.9792 377.304 42.6875 373.013 42.6875C368.679 42.6875 365.242 44.0417 362.7 46.75C360.2 49.4167 358.742 52.8542 358.325 57.0625ZM408.4 44.875L413.9 5.875H433.087L421.462 44.875H408.4ZM496.475 49.0625L478.85 50.125C478.35 47.9167 477.1 46.0208 475.1 44.4375C473.142 42.8125 470.475 42 467.1 42C464.1 42 461.579 42.625 459.538 43.875C457.496 45.125 456.475 46.7917 456.475 48.875C456.475 50.5417 457.142 51.9583 458.475 53.125C459.808 54.2917 462.079 55.2292 465.288 55.9375L477.975 58.4375C491.392 61.1042 498.1 67.3958 498.1 77.3125C498.1 81.9375 496.767 85.9792 494.1 89.4375C491.433 92.8958 487.767 95.5833 483.1 97.5C478.433 99.4167 473.079 100.375 467.038 100.375C457.788 100.375 450.433 98.4583 444.975 94.625C439.517 90.75 436.308 85.4792 435.35 78.8125L454.35 77.8125C455.642 83.5625 459.892 86.4375 467.1 86.4375C470.475 86.4375 473.204 85.7708 475.288 84.4375C477.371 83.1042 478.413 81.4167 478.413 79.375C478.413 75.9167 475.433 73.5833 469.475 72.375L457.413 69.875C443.954 67.1667 437.225 60.5417 437.225 50C437.225 43.25 439.913 37.9375 445.288 34.0625C450.704 30.1875 457.871 28.25 466.788 28.25C475.621 28.25 482.579 30.125 487.663 33.875C492.746 37.5833 495.683 42.6458 496.475 49.0625Z" fill="white"/>
<path d="M0.75 225.125V129.125H19.8125V140.938H20.6875C21.5625 139.021 22.7917 137.083 24.375 135.125C26 133.167 28.125 131.542 30.75 130.25C33.4167 128.917 36.6875 128.25 40.5625 128.25C45.6875 128.25 50.375 129.583 54.625 132.25C58.9167 134.875 62.3542 138.854 64.9375 144.188C67.5208 149.521 68.8125 156.188 68.8125 164.188C68.8125 171.938 67.5625 178.5 65.0625 183.875C62.5625 189.208 59.1667 193.25 54.875 196C50.5833 198.75 45.7708 200.125 40.4375 200.125C36.6875 200.125 33.5 199.5 30.875 198.25C28.2917 197 26.1667 195.438 24.5 193.562C22.875 191.646 21.6042 189.729 20.6875 187.812H20.125V225.125H0.75ZM19.6875 164.125C19.6875 170.292 20.9583 175.271 23.5 179.062C26.0833 182.854 29.7083 184.75 34.375 184.75C39.125 184.75 42.75 182.833 45.25 179C47.75 175.125 49 170.167 49 164.125C49 158.042 47.75 153.104 45.25 149.312C42.7917 145.521 39.1667 143.625 34.375 143.625C29.7083 143.625 26.0833 145.479 23.5 149.188C20.9583 152.896 19.6875 157.875 19.6875 164.125ZM100.2 200.375C93.1583 200.375 87.0542 198.875 81.8875 195.875C76.7625 192.833 72.8042 188.625 70.0125 183.25C67.2625 177.833 65.8875 171.542 65.8875 164.375C65.8875 157.167 67.2625 150.854 70.0125 145.438C72.8042 140.021 76.7625 135.812 81.8875 132.812C87.0542 129.771 93.1583 128.25 100.2 128.25C107.283 128.25 113.387 129.771 118.512 132.812C123.679 135.812 127.637 140.021 130.387 145.438C133.179 150.854 134.575 157.167 134.575 164.375C134.575 171.542 133.179 177.833 130.387 183.25C127.637 188.625 123.679 192.833 118.512 195.875C113.387 198.875 107.283 200.375 100.2 200.375ZM85.575 164.25C85.575 170.333 86.8042 175.354 89.2625 179.312C91.7208 183.271 95.3875 185.25 100.262 185.25C105.096 185.25 108.742 183.271 111.2 179.312C113.658 175.354 114.887 170.333 114.887 164.25C114.887 158.167 113.658 153.167 111.2 149.25C108.742 145.333 105.096 143.375 100.262 143.375C95.3875 143.375 91.7208 145.333 89.2625 149.25C86.8042 153.167 85.575 158.167 85.575 164.25ZM134.525 199V129.125H153.275V141.375H154.025C155.275 137.042 157.4 133.771 160.4 131.562C163.4 129.312 166.858 128.188 170.775 128.188C171.733 128.188 172.775 128.25 173.9 128.375C175.025 128.5 176.004 128.667 176.837 128.875V146C175.921 145.708 174.65 145.479 173.025 145.312C171.442 145.104 169.983 145 168.65 145C164.4 145 160.879 146.354 158.087 149.062C155.296 151.729 153.9 155.208 153.9 159.5V199H134.525ZM211.225 129.125V143.75H197.975V177.5C197.975 182.042 200.183 184.312 204.6 184.312C205.35 184.312 206.163 184.25 207.038 184.125C207.954 184 208.746 183.854 209.413 183.688L212.475 198.188C208.35 199.396 204.35 200 200.475 200C193.558 200 188.183 198.25 184.35 194.75C180.558 191.25 178.663 186.354 178.663 180.062V143.75H169.163V129.125H178.663V112.5H197.975V129.125H211.225ZM215.613 199V143.75H205.8V129.125H215.613V124.062C215.613 116.521 217.779 110.875 222.113 107.125C226.488 103.375 231.946 101.5 238.488 101.5C241.488 101.5 244.217 101.75 246.675 102.25C249.175 102.708 251.008 103.104 252.175 103.438L248.738 117.938C247.988 117.729 247.071 117.521 245.988 117.312C244.904 117.104 243.758 117 242.55 117C239.717 117 237.717 117.667 236.55 119C235.425 120.292 234.863 122.125 234.863 124.5V129.125H248.8V143.75H234.863V199H215.613ZM279.375 200.375C272.333 200.375 266.229 198.875 261.062 195.875C255.938 192.833 251.979 188.625 249.188 183.25C246.438 177.833 245.062 171.542 245.062 164.375C245.062 157.167 246.438 150.854 249.188 145.438C251.979 140.021 255.938 135.812 261.062 132.812C266.229 129.771 272.333 128.25 279.375 128.25C286.458 128.25 292.562 129.771 297.688 132.812C302.854 135.812 306.812 140.021 309.562 145.438C312.354 150.854 313.75 157.167 313.75 164.375C313.75 171.542 312.354 177.833 309.562 183.25C306.812 188.625 302.854 192.833 297.688 195.875C292.562 198.875 286.458 200.375 279.375 200.375ZM264.75 164.25C264.75 170.333 265.979 175.354 268.438 179.312C270.896 183.271 274.562 185.25 279.438 185.25C284.271 185.25 287.917 183.271 290.375 179.312C292.833 175.354 294.062 170.333 294.062 164.25C294.062 158.167 292.833 153.167 290.375 149.25C287.917 145.333 284.271 143.375 279.438 143.375C274.562 143.375 270.896 145.333 268.438 149.25C265.979 153.167 264.75 158.167 264.75 164.25ZM333.075 105.875V199H313.7V105.875H333.075ZM335.775 199V129.125H355.15V199H335.775ZM345.462 120.188C342.587 120.188 340.108 119.229 338.025 117.312C335.983 115.396 334.962 113.083 334.962 110.375C334.962 107.667 335.983 105.375 338.025 103.5C340.108 101.583 342.587 100.625 345.462 100.625C348.337 100.625 350.796 101.583 352.837 103.5C354.921 105.375 355.962 107.667 355.962 110.375C355.962 113.083 354.921 115.396 352.837 117.312C350.796 119.229 348.337 120.188 345.462 120.188ZM389.35 200.375C382.308 200.375 376.204 198.875 371.038 195.875C365.913 192.833 361.954 188.625 359.163 183.25C356.413 177.833 355.038 171.542 355.038 164.375C355.038 157.167 356.413 150.854 359.163 145.438C361.954 140.021 365.913 135.812 371.038 132.812C376.204 129.771 382.308 128.25 389.35 128.25C396.433 128.25 402.538 129.771 407.663 132.812C412.829 135.812 416.788 140.021 419.538 145.438C422.329 150.854 423.725 157.167 423.725 164.375C423.725 171.542 422.329 177.833 419.538 183.25C416.788 188.625 412.829 192.833 407.663 195.875C402.538 198.875 396.433 200.375 389.35 200.375ZM374.725 164.25C374.725 170.333 375.954 175.354 378.413 179.312C380.871 183.271 384.538 185.25 389.413 185.25C394.246 185.25 397.892 183.271 400.35 179.312C402.808 175.354 404.038 170.333 404.038 164.25C404.038 158.167 402.808 153.167 400.35 149.25C397.892 145.333 394.246 143.375 389.413 143.375C384.538 143.375 380.871 145.333 378.413 149.25C375.954 153.167 374.725 158.167 374.725 164.25Z" fill="#FF4900"/>
</svg>
