<svg width="52" height="76" viewBox="0 0 52 76" fill="none" xmlns="http://www.w3.org/2000/svg">
<path d="M44.0957 51.3896C43.084 51.3896 42.2295 51.0479 41.5322 50.3643C40.835 49.667 40.4863 48.8193 40.4863 47.8213C40.4863 46.8096 40.835 45.9619 41.5322 45.2783C42.2295 44.5947 43.084 44.2529 44.0957 44.2529C45.1074 44.2529 45.9619 44.5947 46.6592 45.2783C47.3564 45.9619 47.7051 46.8096 47.7051 47.8213C47.7051 48.8193 47.3564 49.667 46.6592 50.3643C45.9619 51.0479 45.1074 51.3896 44.0957 51.3896Z" fill="#FF4900"/>
<path d="M2.54297 51V28.0723H8.57227V32.1533H8.85938C9.33789 30.7998 10.1377 29.7334 11.2588 28.9541C12.3799 28.1748 13.7129 27.7852 15.2578 27.7852C16.8301 27.7852 18.1631 28.1816 19.2568 28.9746C20.3643 29.7539 21.0957 30.8135 21.4512 32.1533H21.6973C22.1758 30.8271 23.0234 29.7676 24.2402 28.9746C25.4707 28.1816 26.9268 27.7852 28.6084 27.7852C30.7412 27.7852 32.4775 28.4619 33.8174 29.8154C35.1709 31.1689 35.8477 33.0898 35.8477 35.5781V51H29.4902V36.8496C29.4902 35.5645 29.1484 34.6074 28.4648 33.9785C27.7949 33.3496 26.9541 33.0352 25.9424 33.0352C24.7939 33.0352 23.8916 33.4043 23.2354 34.1426C22.5928 34.8672 22.2715 35.8242 22.2715 37.0137V51H16.0986V36.6855C16.0986 35.5781 15.7773 34.6963 15.1348 34.04C14.5059 33.3701 13.6719 33.0352 12.6328 33.0352C11.5664 33.0352 10.6777 33.4248 9.9668 34.2041C9.25586 34.9697 8.90039 35.9883 8.90039 37.2598V51H2.54297Z" fill="black"/>
</svg>
