<svg width="67" height="67" viewBox="0 0 67 67" fill="none" xmlns="http://www.w3.org/2000/svg">
<path d="M49.0933 37.9073L40.7183 33.7198C40.3886 33.5556 40.0215 33.4812 39.6538 33.5041C39.2862 33.5271 38.9312 33.6467 38.6245 33.8507L34.7799 36.4155C33.015 35.4453 31.5626 33.9929 30.5924 32.228L33.1572 28.3834C33.3613 28.0768 33.4808 27.7217 33.5038 27.3541C33.5268 26.9865 33.4524 26.6193 33.2881 26.2896L29.1006 17.9146C28.927 17.5641 28.6587 17.2692 28.3262 17.0634C27.9936 16.8576 27.61 16.749 27.2188 16.75C24.4423 16.75 21.7796 17.853 19.8163 19.8162C17.853 21.7795 16.7501 24.4423 16.7501 27.2188C16.757 33.3249 19.1857 39.179 23.5034 43.4967C27.8211 47.8143 33.6752 50.2431 39.7813 50.25C41.1561 50.25 42.5174 49.9792 43.7876 49.4531C45.0577 48.927 46.2117 48.1559 47.1839 47.1838C48.156 46.2117 48.9271 45.0576 49.4532 43.7875C49.9793 42.5173 50.2501 41.156 50.2501 39.7812C50.2504 39.3923 50.1423 39.0109 49.938 38.6799C49.7336 38.3489 49.4411 38.0814 49.0933 37.9073ZM39.7813 46.0625C34.7854 46.057 29.9956 44.0699 26.4629 40.5372C22.9302 37.0045 20.9431 32.2147 20.9376 27.2188C20.9372 25.7665 21.44 24.359 22.3604 23.2358C23.2809 22.1125 24.5621 21.3429 25.9861 21.0579L28.9907 27.0774L26.4337 30.8828C26.2426 31.1694 26.1252 31.4988 26.0919 31.8416C26.0585 32.1845 26.1103 32.5303 26.2426 32.8483C27.7407 36.4087 30.5731 39.2411 34.1334 40.7391C34.4525 40.8773 34.8009 40.9339 35.1472 40.9037C35.4935 40.8736 35.8269 40.7576 36.1173 40.5664L39.941 38.0173L45.9605 41.0218C45.6733 42.4474 44.9003 43.7292 43.7734 44.6485C42.6465 45.5678 41.2356 46.0675 39.7813 46.0625ZM33.5001 6.28125C28.8008 6.28023 24.1814 7.49586 20.0913 9.80982C16.0013 12.1238 12.58 15.4572 10.1605 19.4857C7.74093 23.5142 6.4056 28.1005 6.28444 32.7982C6.16328 37.4959 7.26042 42.1449 9.46907 46.2928L6.49856 55.2043C6.2525 55.9422 6.21679 56.7339 6.39544 57.4909C6.57408 58.2479 6.96001 58.9401 7.50997 59.4901C8.05994 60.0401 8.7522 60.426 9.50918 60.6046C10.2662 60.7833 11.0579 60.7476 11.7957 60.5015L20.7073 57.531C24.3576 59.4726 28.4024 60.557 32.5344 60.702C36.6665 60.847 40.7773 60.0487 44.5547 58.3678C48.3322 56.6869 51.6771 54.1675 54.3355 51.0008C56.994 47.8342 58.896 44.1035 59.8974 40.092C60.8987 36.0805 60.973 31.8936 60.1146 27.8491C59.2562 23.8046 57.4877 20.0088 54.9433 16.7498C52.3989 13.4908 49.1455 10.8543 45.43 9.04043C41.7146 7.22655 37.6347 6.28295 33.5001 6.28125ZM33.5001 56.5312C29.4512 56.534 25.4734 55.4678 21.9688 53.4404C21.7122 53.2915 21.4269 53.199 21.1318 53.1687C20.8367 53.1385 20.5386 53.1713 20.2571 53.265L10.4688 56.5312L13.7325 46.743C13.8265 46.4617 13.8598 46.1637 13.83 45.8686C13.8002 45.5735 13.7081 45.2881 13.5597 45.0313C11.021 40.6421 10.0017 35.5377 10.66 30.51C11.3182 25.4824 13.6173 20.8124 17.2005 17.2247C20.7836 13.637 25.4506 11.3321 30.4775 10.6675C35.5043 10.0028 40.61 11.0157 45.0024 13.5489C49.3949 16.0821 52.8286 19.994 54.7709 24.6779C56.7132 29.3617 57.0555 34.5556 55.7447 39.4538C54.4339 44.352 51.5433 48.6808 47.5213 51.7685C43.4992 54.8563 38.5707 56.5304 33.5001 56.5312Z" fill="#111111"/>
</svg>
